<svg width="20" height="20" viewBox="0 0 20 20" fill="none" xmlns="http://www.w3.org/2000/svg">
<path d="M13.8893 6.66667V5.02778C13.8893 4.51708 13.7887 4.01139 13.5933 3.53956C13.3979 3.06774 13.1114 2.63904 12.7503 2.27792C12.3892 1.9168 11.9605 1.63035 11.4886 1.43491C11.0168 1.23948 10.5111 1.13889 10.0004 1.13889C9.48974 1.13889 8.98404 1.23948 8.51222 1.43491C8.0404 1.63035 7.61169 1.9168 7.25057 2.27792C6.88946 2.63904 6.603 3.06774 6.40757 3.53956C6.21213 4.01139 6.11154 4.51708 6.11154 5.02778V8.91667C6.11154 9.06401 6.17008 9.20532 6.27426 9.3095C6.37845 9.41369 6.51976 9.47222 6.6671 9.47222C6.81444 9.47222 6.95575 9.41369 7.05994 9.3095C7.16412 9.20532 7.22266 9.06401 7.22266 8.91667V7.77778H11.6671V6.66667H7.22266V5.02778C7.22266 4.29107 7.51531 3.58453 8.03625 3.06359C8.55718 2.54266 9.26372 2.25 10.0004 2.25C10.7371 2.25 11.4437 2.54266 11.9646 3.06359C12.4856 3.58453 12.7782 4.29107 12.7782 5.02778V8.88889C12.7782 9.03623 12.8367 9.17754 12.9409 9.28173C13.0451 9.38591 13.1864 9.44444 13.3338 9.44444C13.4811 9.44444 13.6224 9.38591 13.7266 9.28173C13.8308 9.17754 13.8893 9.03623 13.8893 8.88889V7.77778H16.6671V17.7778H3.33377V7.77778H5.00043V6.66667H2.22266V17.8278C2.22266 18.1092 2.33445 18.3791 2.53345 18.5781C2.73245 18.7771 3.00234 18.8889 3.28377 18.8889H16.7171C16.9985 18.8889 17.2684 18.7771 17.4674 18.5781C17.6664 18.3791 17.7782 18.1092 17.7782 17.8278V6.66667H13.8893Z" fill="#7D7D7D"/>
</svg>
