<svg width="15" height="15" viewBox="0 0 15 15" fill="none" xmlns="http://www.w3.org/2000/svg">
<path d="M7.50011 1.25696C3.94761 1.25696 1.05566 3.7864 1.05566 6.89585C1.05566 10.0053 3.94761 12.5347 7.50011 12.5347C8.16475 12.534 8.82613 12.4418 9.46566 12.2608L11.693 13.6786C11.7538 13.7176 11.824 13.7396 11.8962 13.7421C11.9684 13.7447 12.04 13.7278 12.1034 13.6932C12.1668 13.6586 12.2198 13.6076 12.2567 13.5455C12.2936 13.4834 12.3132 13.4125 12.3133 13.3403V10.6296C12.8173 10.1461 13.2194 9.56674 13.4961 8.92551C13.7728 8.28429 13.9184 7.59419 13.9244 6.89585C13.9446 3.7864 11.0526 1.25696 7.50011 1.25696ZM11.6447 10.1624C11.6042 10.1999 11.5719 10.2454 11.5497 10.296C11.5275 10.3466 11.516 10.4012 11.5158 10.4564V12.6072L9.75164 11.4835C9.70243 11.4524 9.64706 11.4323 9.58934 11.4247C9.53163 11.417 9.47295 11.422 9.41733 11.4392C8.79654 11.632 8.15015 11.7298 7.50011 11.7292C4.39066 11.7292 1.86122 9.56223 1.86122 6.89585C1.86122 4.22946 4.39066 2.06251 7.50011 2.06251C10.6096 2.06251 13.139 4.22946 13.139 6.89585C13.1298 7.51414 12.9922 8.12378 12.735 8.68609C12.4778 9.24841 12.1065 9.75113 11.6447 10.1624Z" fill="#FFFDF5"/>
<path d="M10.319 6.49304H4.68012C4.5733 6.49304 4.47085 6.53548 4.39531 6.61101C4.31978 6.68655 4.27734 6.789 4.27734 6.89582C4.27734 7.00264 4.31978 7.10509 4.39531 7.18063C4.47085 7.25616 4.5733 7.2986 4.68012 7.2986H10.319C10.4258 7.2986 10.5283 7.25616 10.6038 7.18063C10.6794 7.10509 10.7218 7.00264 10.7218 6.89582C10.7218 6.789 10.6794 6.68655 10.6038 6.61101C10.5283 6.53548 10.4258 6.49304 10.319 6.49304Z" fill="#FFFDF5"/>
<path d="M9.01052 8.50696H5.98969C5.88287 8.50696 5.78042 8.54939 5.70489 8.62493C5.62935 8.70046 5.58691 8.80291 5.58691 8.90974C5.58691 9.01656 5.62935 9.11901 5.70489 9.19454C5.78042 9.27008 5.88287 9.31251 5.98969 9.31251H9.01052C9.11735 9.31251 9.2198 9.27008 9.29533 9.19454C9.37087 9.11901 9.4133 9.01656 9.4133 8.90974C9.4133 8.80291 9.37087 8.70046 9.29533 8.62493C9.2198 8.54939 9.11735 8.50696 9.01052 8.50696Z" fill="#FFFDF5"/>
<path d="M4.7934 5.28468H10.2067C10.3136 5.28468 10.416 5.24225 10.4915 5.16671C10.5671 5.09117 10.6095 4.98873 10.6095 4.8819C10.6095 4.77508 10.5671 4.67263 10.4915 4.5971C10.416 4.52156 10.3136 4.47913 10.2067 4.47913H4.7934C4.68658 4.47913 4.58413 4.52156 4.5086 4.5971C4.43306 4.67263 4.39062 4.77508 4.39062 4.8819C4.39062 4.98873 4.43306 5.09117 4.5086 5.16671C4.58413 5.24225 4.68658 5.28468 4.7934 5.28468Z" fill="#FFFDF5"/>
</svg>
