<svg width="13" height="13" viewBox="0 0 13 13" fill="none" xmlns="http://www.w3.org/2000/svg">
<path d="M7.2915 6.8082L10.1332 3.96648C10.1894 3.9009 10.2187 3.81655 10.2154 3.73028C10.2121 3.64401 10.1763 3.56217 10.1153 3.50112C10.0542 3.44007 9.97237 3.40431 9.8861 3.40098C9.79982 3.39764 9.71547 3.42699 9.6499 3.48315L6.80817 6.32487L3.96644 3.47972C3.9019 3.41517 3.81435 3.37891 3.72306 3.37891C3.63178 3.37891 3.54423 3.41517 3.47968 3.47972C3.41513 3.54427 3.37887 3.63181 3.37887 3.7231C3.37887 3.81438 3.41513 3.90193 3.47968 3.96648L6.32484 6.8082L3.47968 9.64993C3.4438 9.68066 3.41466 9.71848 3.39408 9.761C3.3735 9.80353 3.36194 9.84985 3.36012 9.89706C3.3583 9.94427 3.36625 9.99135 3.38348 10.0353C3.40072 10.0793 3.42686 10.1193 3.46026 10.1527C3.49367 10.1861 3.53362 10.2122 3.57761 10.2295C3.6216 10.2467 3.66867 10.2547 3.71588 10.2528C3.76309 10.251 3.80941 10.2394 3.85194 10.2189C3.89447 10.1983 3.93229 10.1691 3.96302 10.1333L6.80817 7.29154L9.6499 10.1333C9.71547 10.1894 9.79982 10.2188 9.8861 10.2154C9.97237 10.2121 10.0542 10.1763 10.1153 10.1153C10.1763 10.0542 10.2121 9.9724 10.2154 9.88613C10.2187 9.79986 10.1894 9.71551 10.1332 9.64993L7.2915 6.8082Z" fill="#FFFDF5"/>
</svg>
