<svg width="20" height="20" viewBox="0 0 20 20" fill="none" xmlns="http://www.w3.org/2000/svg">
<path d="M16.4582 9.58331C16.6092 9.58332 16.7551 9.63802 16.8689 9.73729C16.9828 9.83656 17.0568 9.97369 17.0773 10.1233L17.0832 10.2083V14.375C17.0832 15.3935 16.6906 16.3728 15.987 17.1092C15.2835 17.8457 14.3231 18.2826 13.3057 18.3291L13.1248 18.3333H6.87484C6.05817 18.3333 5.364 17.8116 5.1065 17.0833H13.1248L13.2782 17.0791C13.9422 17.0413 14.569 16.7605 15.0393 16.2903C15.5096 15.82 15.7904 15.1931 15.8282 14.5291L15.8332 14.375V10.2083C15.8332 10.0426 15.899 9.88358 16.0162 9.76637C16.1334 9.64916 16.2924 9.58331 16.4582 9.58331ZM14.3748 7.91665C14.5259 7.91665 14.6718 7.97135 14.7856 8.07062C14.8994 8.16989 14.9735 8.30702 14.994 8.45665L14.9998 8.54165V14.375C14.9999 14.8501 14.8196 15.3075 14.4954 15.6548C14.1711 16.0021 13.7272 16.2133 13.2532 16.2458L13.1248 16.25H4.7915C4.3164 16.25 3.85899 16.0697 3.51171 15.7455C3.16443 15.4213 2.95319 14.9773 2.92067 14.5033L2.9165 14.375V8.54165C2.91655 8.38329 2.97671 8.23086 3.08481 8.11515C3.19292 7.99945 3.34092 7.92909 3.4989 7.91829C3.65689 7.9075 3.81308 7.95708 3.93592 8.05701C4.05876 8.15694 4.13909 8.29977 4.16067 8.45665L4.1665 8.54165V14.375C4.1665 14.6916 4.4015 14.9533 4.7065 14.9941L4.7915 15H13.1248C13.2759 15 13.4218 14.9453 13.5356 14.846C13.6494 14.7467 13.7235 14.6096 13.744 14.46L13.7498 14.375V8.54165C13.7498 8.37589 13.8157 8.21692 13.9329 8.09971C14.0501 7.9825 14.2091 7.91665 14.3748 7.91665ZM5.1815 5.17998L8.51317 1.84998C8.61899 1.74413 8.75929 1.67978 8.90855 1.66861C9.05781 1.65745 9.20611 1.70022 9.32651 1.78915L9.3965 1.84915L12.7332 5.17998C12.8453 5.29136 12.911 5.44108 12.9172 5.59899C12.9234 5.75691 12.8695 5.9113 12.7664 6.03108C12.6633 6.15086 12.5187 6.22714 12.3616 6.24456C12.2045 6.26199 12.0467 6.21926 11.9198 6.12498L11.8498 6.06415L9.58317 3.80248V11.8791C9.58317 12.0302 9.52847 12.1761 9.4292 12.2899C9.32993 12.4037 9.1928 12.4778 9.04317 12.4983L8.95817 12.5041C8.80714 12.5041 8.66122 12.4494 8.5474 12.3502C8.43357 12.2509 8.35954 12.1138 8.339 11.9641L8.33317 11.8791V3.79665L6.06567 6.06415C5.95969 6.17009 5.81918 6.23443 5.66974 6.24544C5.52029 6.25646 5.37187 6.21341 5.2515 6.12415L5.1815 6.06415C5.07556 5.95817 5.01122 5.81766 5.00021 5.66821C4.9892 5.51877 5.03224 5.37034 5.1215 5.24998L5.1815 5.17998L8.51317 1.84998L5.1815 5.17998Z" fill="#FFFDF5"/>
</svg>
