<svg width="20" height="20" viewBox="0 0 20 20" fill="none" xmlns="http://www.w3.org/2000/svg">
<path d="M13.3426 2.91622C13.4517 3.02784 13.5127 3.17769 13.5127 3.33372C13.5127 3.48975 13.4517 3.6396 13.3426 3.75122L7.25138 9.99997L13.3426 16.2475C13.4517 16.3591 13.5127 16.5089 13.5127 16.665C13.5127 16.821 13.4517 16.9708 13.3426 17.0825C13.2896 17.1369 13.2263 17.1802 13.1563 17.2097C13.0863 17.2392 13.0111 17.2545 12.9351 17.2545C12.8592 17.2545 12.784 17.2392 12.714 17.2097C12.644 17.1802 12.5806 17.1369 12.5276 17.0825L6.05013 10.4362C5.93636 10.3195 5.87269 10.163 5.87269 9.99997C5.87269 9.83698 5.93636 9.68044 6.05013 9.56372L12.5276 2.91747C12.5806 2.86304 12.644 2.81978 12.714 2.79024C12.784 2.7607 12.8592 2.74548 12.9351 2.74548C13.0111 2.74548 13.0863 2.7607 13.1563 2.79024C13.2263 2.81978 13.2896 2.86304 13.3426 2.91747V2.91622Z" fill="#FFFDF5"/>
</svg>
