<svg width="36" height="37" viewBox="0 0 36 37" fill="none" xmlns="http://www.w3.org/2000/svg">
<g filter="url(#filter0_d_169_1960)">
<path d="M18.3494 13.5915C17.4121 13.5817 16.4987 13.2947 15.7242 12.7668C14.9497 12.2389 14.3487 11.4937 13.9968 10.6249C13.6449 9.75613 13.558 8.80268 13.7469 7.88459C13.9358 6.9665 14.392 6.12481 15.0583 5.4655C15.7245 4.8062 16.571 4.35874 17.491 4.17948C18.411 4.00022 19.3635 4.09716 20.2285 4.45809C21.0936 4.81903 21.8325 5.42783 22.3522 6.20785C22.872 6.98786 23.1494 7.90422 23.1494 8.84154C23.1406 10.1073 22.6305 11.3179 21.7308 12.2082C20.8311 13.0985 19.6152 13.596 18.3494 13.5915ZM18.3494 5.7582C17.7418 5.76806 17.1507 5.95723 16.6502 6.30197C16.1498 6.6467 15.7624 7.13163 15.5367 7.69583C15.311 8.26003 15.257 8.87835 15.3815 9.47313C15.5061 10.0679 15.8036 10.6126 16.2368 11.0388C16.6699 11.4651 17.2193 11.7538 17.816 11.8688C18.4127 11.9837 19.0301 11.9198 19.5906 11.6851C20.1511 11.4503 20.6297 11.0551 20.9664 10.5492C21.303 10.0433 21.4827 9.44922 21.4828 8.84154C21.474 8.01784 21.1394 7.23113 20.5523 6.65335C19.9651 6.07558 19.1731 5.75375 18.3494 5.7582Z" fill="#514A7E"/>
<path d="M18.3494 13.5915C17.4121 13.5817 16.4987 13.2947 15.7242 12.7668C14.9497 12.2389 14.3487 11.4937 13.9968 10.6249C13.6449 9.75613 13.558 8.80268 13.7469 7.88459C13.9358 6.9665 14.392 6.12481 15.0583 5.4655C15.7245 4.8062 16.571 4.35874 17.491 4.17948C18.411 4.00022 19.3635 4.09716 20.2285 4.45809C21.0936 4.81903 21.8325 5.42783 22.3522 6.20785C22.872 6.98786 23.1494 7.90422 23.1494 8.84154C23.1406 10.1073 22.6305 11.3179 21.7308 12.2082C20.8311 13.0985 19.6152 13.596 18.3494 13.5915ZM18.3494 5.7582C17.7418 5.76806 17.1507 5.95723 16.6502 6.30197C16.1498 6.6467 15.7624 7.13163 15.5367 7.69583C15.311 8.26003 15.257 8.87835 15.3815 9.47313C15.5061 10.0679 15.8036 10.6126 16.2368 11.0388C16.6699 11.4651 17.2193 11.7538 17.816 11.8688C18.4127 11.9837 19.0301 11.9198 19.5906 11.6851C20.1511 11.4503 20.6297 11.0551 20.9664 10.5492C21.303 10.0433 21.4827 9.44922 21.4828 8.84154C21.474 8.01784 21.1394 7.23113 20.5523 6.65335C19.9651 6.07558 19.1731 5.75375 18.3494 5.7582Z" fill="#514A7E"/>
<path d="M21.2583 14.7083C17.5621 14.0651 13.757 14.6505 10.425 16.3749C10.1885 16.5063 9.99263 16.7001 9.85888 16.9353C9.72513 17.1704 9.65864 17.4378 9.66667 17.7083V20.6749C9.66667 20.8959 9.75446 21.1079 9.91074 21.2642C10.067 21.4205 10.279 21.5083 10.5 21.5083C10.721 21.5083 10.933 21.4205 11.0893 21.2642C11.2455 21.1079 11.3333 20.8959 11.3333 20.6749V17.8166C14.4231 16.2663 17.9367 15.7744 21.3333 16.4166L21.2583 14.7083Z" fill="#514A7E"/>
<path d="M30.4997 18.3333H24.9163V17.0999C24.9163 16.8789 24.8285 16.667 24.6723 16.5107C24.516 16.3544 24.304 16.2666 24.083 16.2666C23.862 16.2666 23.65 16.3544 23.4938 16.5107C23.3375 16.667 23.2497 16.8789 23.2497 17.0999V18.3333H17.1663C16.9453 18.3333 16.7334 18.4211 16.5771 18.5773C16.4208 18.7336 16.333 18.9456 16.333 19.1666V27.4999C16.333 27.7209 16.4208 27.9329 16.5771 28.0892C16.7334 28.2455 16.9453 28.3333 17.1663 28.3333H30.4997C30.7207 28.3333 30.9327 28.2455 31.0889 28.0892C31.2452 27.9329 31.333 27.7209 31.333 27.4999V19.1666C31.333 18.9456 31.2452 18.7336 31.0889 18.5773C30.9327 18.4211 30.7207 18.3333 30.4997 18.3333ZM29.6663 26.6666H17.9997V19.9999H23.2497V20.3416C23.2497 20.5626 23.3375 20.7746 23.4938 20.9309C23.65 21.0871 23.862 21.1749 24.083 21.1749C24.304 21.1749 24.516 21.0871 24.6723 20.9309C24.8285 20.7746 24.9163 20.5626 24.9163 20.3416V19.9999H29.6663V26.6666Z" fill="#514A7E"/>
<path d="M21.1758 22.8501H26.1425V24.0168H21.1758V22.8501Z" fill="#514A7E"/>
<path d="M12.0337 10.1997C9.72653 10.2383 7.45941 10.8087 5.40866 11.8664C5.18563 11.9842 4.99881 12.1604 4.86817 12.3762C4.73754 12.5919 4.668 12.8391 4.66699 13.0914V15.6747C4.66699 15.8957 4.75479 16.1077 4.91107 16.264C5.06735 16.4202 5.27931 16.508 5.50033 16.508C5.72134 16.508 5.9333 16.4202 6.08958 16.264C6.24586 16.1077 6.33366 15.8957 6.33366 15.6747V13.258C8.29307 12.2827 10.4625 11.8048 12.6503 11.8664C12.3641 11.3441 12.1563 10.7825 12.0337 10.1997Z" fill="#514A7E"/>
<path d="M30.5915 11.8586C28.7522 10.8937 26.7308 10.3259 24.6581 10.1919C24.5361 10.7737 24.3312 11.3349 24.0498 11.8586C26.0024 11.9053 27.9204 12.3834 29.6665 13.2586V15.6752C29.6665 15.8962 29.7543 16.1082 29.9105 16.2645C30.0668 16.4208 30.2788 16.5086 30.4998 16.5086C30.7208 16.5086 30.9328 16.4208 31.0891 16.2645C31.2453 16.1082 31.3331 15.8962 31.3331 15.6752V13.0919C31.3336 12.8382 31.2648 12.5893 31.1341 12.3719C31.0034 12.1545 30.8158 11.977 30.5915 11.8586Z" fill="#514A7E"/>
<path d="M11.884 8.84143V8.2831C11.2312 8.19574 10.6372 7.85996 10.2257 7.34568C9.81423 6.8314 9.61695 6.17823 9.67493 5.52215C9.73292 4.86607 10.0417 4.25762 10.537 3.82348C11.0323 3.38934 11.676 3.16295 12.334 3.19144C13.0184 3.1902 13.6763 3.45633 14.1673 3.9331C14.6006 3.57575 15.0764 3.27345 15.584 3.0331C15.017 2.38115 14.2658 1.9163 13.4293 1.69983C12.5928 1.48335 11.7104 1.52542 10.8984 1.82047C10.0863 2.11552 9.38267 2.64972 8.88026 3.35265C8.37785 4.05557 8.10023 4.89424 8.08398 5.7581C8.10147 6.8154 8.51248 7.8282 9.23674 8.59868C9.96099 9.36916 10.9465 9.84198 12.0007 9.92477C11.93 9.56779 11.8909 9.20527 11.884 8.84143Z" fill="#514A7E"/>
<path d="M23.6414 1.52494C23.0687 1.52506 22.5018 1.63936 21.9738 1.86114C21.4459 2.08292 20.9674 2.40774 20.5664 2.8166C21.1298 3.02074 21.6625 3.30113 22.1497 3.64994C22.5388 3.37988 22.9938 3.22046 23.4663 3.18869C23.9389 3.15692 24.4111 3.25399 24.8328 3.46954C25.2545 3.68509 25.6098 4.01104 25.8608 4.41264C26.1118 4.81424 26.2491 5.27643 26.2581 5.74994C26.2528 6.2363 26.1099 6.71123 25.846 7.11975C25.582 7.52827 25.2077 7.85367 24.7664 8.05827C24.7999 8.31524 24.8166 8.57412 24.8164 8.83327C24.8142 9.16824 24.7863 9.50255 24.7331 9.83327C25.6409 9.59988 26.4461 9.07291 27.0234 8.3344C27.6006 7.59589 27.9175 6.68725 27.9247 5.74994C27.9137 4.62269 27.4571 3.5456 26.6545 2.75397C25.8519 1.96233 24.7687 1.52048 23.6414 1.52494Z" fill="#514A7E"/>
</g>
<defs>
<filter id="filter0_d_169_1960" x="-1" y="0" width="38" height="38" filterUnits="userSpaceOnUse" color-interpolation-filters="sRGB">
<feFlood flood-opacity="0" result="BackgroundImageFix"/>
<feColorMatrix in="SourceAlpha" type="matrix" values="0 0 0 0 0 0 0 0 0 0 0 0 0 0 0 0 0 0 127 0" result="hardAlpha"/>
<feOffset dy="4"/>
<feGaussianBlur stdDeviation="2"/>
<feComposite in2="hardAlpha" operator="out"/>
<feColorMatrix type="matrix" values="0 0 0 0 0 0 0 0 0 0 0 0 0 0 0 0 0 0 0.25 0"/>
<feBlend mode="normal" in2="BackgroundImageFix" result="effect1_dropShadow_169_1960"/>
<feBlend mode="normal" in="SourceGraphic" in2="effect1_dropShadow_169_1960" result="shape"/>
</filter>
</defs>
</svg>
