<svg width="16" height="16" viewBox="0 0 16 16" fill="none" xmlns="http://www.w3.org/2000/svg">
<path d="M7.99962 14.4133C7.90142 14.413 7.80608 14.3802 7.72851 14.32C5.25739 12.4 3.55517 10.7467 2.36406 9.11556C0.84406 7.03111 0.497393 5.10667 1.33295 3.39556C1.9285 2.17334 3.63962 1.17334 5.63962 1.75556C6.59319 2.031 7.42517 2.62169 7.99962 3.43112C8.57407 2.62169 9.40604 2.031 10.3596 1.75556C12.3552 1.18223 14.0707 2.17334 14.6663 3.39556C15.5018 5.10667 15.1552 7.03111 13.6352 9.11556C12.4441 10.7467 10.7418 12.4 8.27073 14.32C8.19315 14.3802 8.09782 14.413 7.99962 14.4133ZM4.50184 2.48C4.02595 2.46148 3.554 2.57291 3.13666 2.80234C2.71931 3.03176 2.37233 3.37051 2.13295 3.78223C1.44406 5.19556 1.75517 6.76889 3.08406 8.58667C4.49631 10.4083 6.15002 12.0291 7.99962 13.4044C9.84892 12.0304 11.5026 10.4111 12.9152 8.59111C14.2485 6.76889 14.5552 5.19556 13.8663 3.78667C13.4218 2.89778 12.0885 2.19112 10.6041 2.60889C10.1281 2.74956 9.68682 2.98832 9.30869 3.30982C8.93055 3.63131 8.62391 4.02841 8.40851 4.47556C8.37502 4.55708 8.31806 4.6268 8.24486 4.67586C8.17166 4.72493 8.08552 4.75113 7.9974 4.75113C7.90927 4.75113 7.82313 4.72493 7.74993 4.67586C7.67673 4.6268 7.61977 4.55708 7.58628 4.47556C7.3725 4.02729 7.06638 3.62926 6.68801 3.30757C6.30964 2.98588 5.86755 2.74778 5.39073 2.60889C5.10183 2.52498 4.80267 2.48161 4.50184 2.48Z" fill="#121212"/>
</svg>
